# AST/ASF file generated using VICON BodyLanguage
# -----------------------------------------------
:version 1.10
:name VICON
:units
  mass 1.0
  length 0.45
  angle deg
:documentation
   .ast/.asf automatically generated from VICON data using
   VICON BodyBuilder and BodyLanguage model FoxedUp or BRILLIANT.MOD
:root
   order TX TY TZ RX RY RZ
   axis XYZ
   position 0 0 0  
   orientation 0 0 0 
:bonedata
  begin
     id 1 
     name lhipjoint
     direction 0.621036 -0.695554 0.361275 
     length 2.46325 
     axis 0 0 0  XYZ
  end
  begin
     id 2 
     name lfemur
     direction 0.34202 -0.939693 0  
     length 6.54784  
     axis 0 0 20  XYZ
    dof rx ry rz
    limits (-160.0 20.0)
           (-70.0 70.0)
           (-60.0 70.0)
  end
  begin
     id 3 
     name ltibia
     direction 0.34202 -0.939693 0   
     length 7.84737   
     axis 0 0 20   XYZ
    dof rx
    limits (-10.0 170.0)
  end
  begin
     id 4 
     name lfoot
     direction 0.0790693 -0.217241 0.97291   
     length 2.59747   
     axis -90 7.62852e-016 20   XYZ
    dof rx rz
    limits (-45.0 90.0)
           (-70.0 20.0)
  end
  begin
     id 5 
     name ltoes
     direction 1.53572e-011 -4.21898e-011 1   
     length 1.29919   
     axis -90 7.62852e-016 20   XYZ
    dof rx
    limits (-90.0 20.0)
  end
  begin
     id 6 
     name rhipjoint
     direction -0.602353 -0.708375 0.367935   
     length 2.41867  
     axis 0 0 0  XYZ 
  end
  begin
     id 7 
     name rfemur
     direction -0.34202 -0.939693 0   
     length 6.92065   
     axis 0 0 -20   XYZ
    dof rx ry rz
    limits (-160.0 20.0)
           (-70.0 70.0)
           (-70.0 60.0)
  end
  begin
     id 8 
     name rtibia
     direction -0.34202 -0.939693 0   
     length 7.88883   
     axis 0 0 -20   XYZ
    dof rx
    limits (-10.0 170.0)
 end
 begin
     id 9 
     name rfoot
     direction -0.0768692 -0.211196 0.974416   
     length 2.43714  
     axis -90 -7.62852e-016 -20   XYZ
    dof rx rz
    limits (-45.0 90.0)
           (-20.0 70.0)
  end
  begin
     id 10 
     name rtoes
     direction -1.53575e-011 -4.21933e-011 1   
     length 1.22113   
     axis -90 -7.62852e-016 -20   XYZ
    dof rx
    limits (-90.0 20.0)
  end
  begin
     id 11 
     name lowerback
     direction 0.0197937 0.98943 -0.143655   
     length 2.16931   
     axis 0 0 0   XYZ
    dof rx ry rz
    limits (-20.0 45.0)
           (-30.0 30.0)
           (-30.0 30.0)
  end
  begin
     id 12 
     name upperback
     direction -0.00183968 0.999975 0.00684288   
     length 2.17221   
     axis 0 0 0   XYZ
    dof rx ry rz
    limits (-20.0 45.0)
           (-30.0 30.0)
           (-30.0 30.0)
  end
  begin
     id 13 
     name thorax
     direction -0.00950244 0.997208 0.0740685   
     length 2.22549   
     axis 0 0 0   XYZ
    dof rx ry rz
    limits (-20.0 45.0)
           (-30.0 30.0)
           (-30.0 30.0)
  end
  begin
     id 14 
     name lowerneck
     direction 0.0218238 0.996215 0.0841425   
     length 1.77269   
     axis 0 0 0   XYZ
    dof rx ry rz
    limits (-20.0 45.0)
           (-30.0 30.0)
           (-30.0 30.0)
  end
  begin
     id 15 
     name upperneck
     direction -0.00430652 0.994214 -0.107332   
     length 1.76534   
     axis 0 0 0   XYZ
    dof rx ry rz
    limits (-20.0 45.0)
           (-30.0 30.0)
           (-30.0 30.0)
  end
  begin
     id 16
     name head
     direction -0.00328946 0.998959 -0.0454998  
     length 1.82634  
     axis 0 0 0   XYZ
    dof rx ry rz
    limits (-20.0 45.0)
           (-30.0 30.0)
           (-30.0 30.0)
  end
  begin
     id 17 
     name lclavicle
     direction 0.970962 0.239191 0.00450212  
     length 3.84872  
     axis 0 0 0   XYZ
    dof ry rz
    limits (-20.0 10.0)
           (0.0 20.0)
  end
  begin
     id 18 
     name lhumerus
     direction 1 -4.48966e-011 5.74696e-028   
     length 5.22771   
     axis 180 -30 -90   XYZ
    dof rx ry rz
    limits (-60.0 90.0)
           (-90.0 90.0)
           (-90.0 90.0)
  end
  begin
     id 19
     name lradius
     direction 1 -4.4896e-011 4.25109e-027   
     length 3.45251   
     axis 180 -30 -90   XYZ
    dof rx
    limits (-10.0 170.0)
  end
  begin
     id 20
     name lwrist
     direction 1 -4.48971e-011 1.15382e-027   
     length 1.72626   
     axis -5.52449e-016 90 90   XYZ
    dof ry
    limits (-180.0 0.0)
 end
  begin
     id 21 
     name lhand
     direction 1 -4.49034e-011 2.30765e-027   
     length 0.552119   
     axis -1.47248e-015 90 90   XYZ
    dof rx rz
    limits (-90.0 90.0)
           (-45.0 45.0)
  end
  begin
     id 22 
     name lfingers
     direction 1 -4.48951e-011 4.61529e-027   
     length 0.445133   
     axis -2.94495e-015 90 90   XYZ
    dof rx
    limits (0.0 90.0)
  end
  begin
     id 23
     name lthumb
     direction 0.707107 -6.34991e-011 0.707107   
     length 0.639124   
     axis -90 45 2.85299e-015   XYZ
    dof rx rz
    limits (-45.0 45.0)
           (-45.0 45.0)
  end
  begin
     id 24 
     name rclavicle
     direction -0.97424 0.222511 -0.0366699   
     length 3.73439  
     axis 0 0 0   XYZ 
    dof ry rz
    limits (-10.0 20.0)
           (-20.0 0.0)
  end
  begin
     id 25 
     name rhumerus
     direction -1 -4.48956e-011 -4.97258e-028  
     length 5.2398   
     axis 180 30 90   XYZ
    dof rx ry rz
    limits (-90.0 60.0)
           (-90.0 90.0)
           (-90.0 90.0)
  end
  begin
     id 26 
     name rradius
     direction -1 -4.4897e-011 -1.72611e-027   
     length 3.48042   
     axis 180 30 90   XYZ
    dof rx
    limits (-10.0 170.0)
  end
  begin
     id 27 
     name rwrist
     direction -1 -4.48976e-011 1.15382e-027   
     length 1.74021   
     axis -5.52449e-016 -90 -90   XYZ
    dof ry
    limits (-180.0 0.0)
  end
  begin
     id 28
     name rhand
     direction -1 -4.48963e-011 2.30765e-027   
     length 0.618713   
     axis -1.47248e-015 -90 -90   XYZ
    dof rx rz
    limits (-90.0 90.0)
           (-45.0 45.0)
  end
  begin
     id 29
     name rfingers
     direction -1 -4.4888e-011 4.61529e-027   
     length 0.498823   
     axis -2.94495e-015 -90 -90   XYZ
    dof rx
    limits (0.0 90.0)
  end
  begin
     id 30
     name rthumb
     direction -0.707107 -6.34968e-011 0.707107   
     length 0.716213   
     axis -90 -45 -2.85299e-015   XYZ
    dof rx rz
    limits (-45.0 45.0)
           (-45.0 45.0)
  end
:hierarchy
  begin
    root lhipjoint rhipjoint lowerback
    lhipjoint lfemur
    lfemur ltibia
    ltibia lfoot
    lfoot ltoes
    rhipjoint rfemur
    rfemur rtibia
    rtibia rfoot
    rfoot rtoes
    lowerback upperback
    upperback thorax
    thorax lowerneck lclavicle rclavicle
    lowerneck upperneck
    upperneck head
    lclavicle lhumerus
    lhumerus lradius
    lradius lwrist
    lwrist lhand lthumb
    lhand lfingers
    rclavicle rhumerus
    rhumerus rradius
    rradius rwrist
    rwrist rhand rthumb
    rhand rfingers
  end

#!OML:ASF G:\JayActor3\Patient Classification 1\Patient 1\Session 5\male.ASF
:FULLY-SPECIFIED
:DEGREES
272
root 46.3482 17.4797 -4.23351 90.8492 -88.2288 -89.9186
lowerback 1.9494 -1.40886 1.51814
upperback 0.847472 -1.85694 -0.0529599
thorax -0.274176 -0.928033 -0.863809
lowerneck -5.87309 0.0467329 0.988709
upperneck 2.559 -0.138428 2.62853
head 1.79949 -0.00128816 0.652334
rclavicle 1.2014e-014 -9.74045e-015
rhumerus -35.1093 -17.4916 -78.4852
rradius 21.8886
rwrist 7.22731
rhand -19.0033 -7.44931
rfingers 7.12502
rthumb 7.30195 -37.3033
lclavicle 1.2014e-014 -9.74045e-015
lhumerus -32.877 9.73476 81.499
lradius 24.7411
lwrist 16.1014
lhand -18.4842 12.823
lfingers 7.12502
lthumb 7.80298 42.659
rfemur -32.5612 5.00932 20.4767
rtibia 32.4002
rfoot 11.1369 -15.8852
rtoes -8.28562
lfemur 17.3536 9.41514 -19.0106
ltibia -1.27222e-014
lfoot 12.0718 -0.719824
ltoes -37.6004
273
root 46.2858 17.4737 -4.24211 86.7563 -88.3079 -85.7632
lowerback 2.01378 -1.42015 1.44507
upperback 0.841971 -1.87219 -0.0484934
thorax -0.313782 -0.936105 -0.816182
lowerneck -5.87142 0.02674 0.967509
upperneck 2.46168 -0.160424 2.61488
head 1.76773 -0.0140924 0.650462
rclavicle -1.3418e-015 -1.98785e-015
rhumerus -35.0741 -17.6522 -78.3988
rradius 21.7566
rwrist 7.39856
rhand -19.0038 -7.45954
rfingers 7.12502
rthumb 7.30149 -37.3136
lclavicle -1.3418e-015 -1.98785e-015
lhumerus -32.7937 9.7952 81.5372
lradius 24.6497
lwrist 16.0402
lhand -18.4731 12.8125
lfingers 7.12502
lthumb 7.81376 42.6482
rfemur -32.9465 4.72705 20.4809
rtibia 32.4296
rfoot 11.4802 -16.3359
rtoes -7.63767
lfemur 17.4868 9.29767 -19.0579
ltibia 7.63333e-014
lfoot 11.9855 -0.649818
ltoes -37.5689
274
root 46.2213 17.4677 -4.25152 81.9249 -88.3744 -80.8667
lowerback 2.06776 -1.43265 1.37631
upperback 0.836124 -1.88921 -0.0455267
thorax -0.348113 -0.944986 -0.772709
lowerneck -5.88041 0.00332461 0.95049
upperneck 2.37936 -0.187967 2.60155
head 1.74283 -0.0293371 0.647917
rclavicle 4.78326e-015 -6.16232e-015
rhumerus -35.0446 -17.7994 -78.3233
rradius 21.6377
rwrist 7.5503
rhand -19.0046 -7.46977
rfingers 7.12502
rthumb 7.30068 -37.3238
lclavicle 4.78326e-015 -6.16232e-015
lhumerus -32.7157 9.85131 81.5752
lradius 24.5503
lwrist 15.9768
lhand -18.4602 12.8261
lfingers 7.12502
lthumb 7.82614 42.6612
rfemur -33.2941 4.56031 20.446
rtibia 32.482
rfoot 11.6899 -16.8114
rtoes -6.98124
lfemur 17.6216 9.16911 -19.1023
ltibia 2.8625e-014
lfoot 11.9183 -0.568398
ltoes -37.5443
275
root 46.1542 17.4617 -4.2617 76.0998 -88.4094 -74.9766
lowerback 2.11602 -1.45254 1.32557
upperback 0.831581 -1.91592 -0.0384882
thorax -0.378521 -0.958632 -0.735052
lowerneck -5.89728 -0.0197308 0.934588
upperneck 2.29542 -0.215209 2.58624
head 1.71883 -0.0444347 0.644594
rclavicle -1.05853e-014 2.18663e-015
rhumerus -35.0133 -17.9316 -78.2562
rradius 21.527
rwrist 7.69046
rhand -18.9997 -7.48092
rfingers 7.12502
rthumb 7.30546 -37.3348
lclavicle -1.05853e-014 2.18663e-015
lhumerus -32.6411 9.91086 81.6139
lradius 24.4443
lwrist 15.9097
lhand -18.4513 12.8586
lfingers 7.12502
lthumb 7.83473 42.6935
rfemur -33.5968 4.50298 20.3821
rtibia 32.5473
rfoot 11.7816 -17.2874
rtoes -6.38523
lfemur 17.7605 9.01885 -19.1302
ltibia 3.49861e-014
lfoot 11.8717 -0.473284
ltoes -37.5341
276
root 46.0846 17.4559 -4.27228 69.2411 -88.4117 -68.0516
lowerback 2.15158 -1.48049 1.2903
upperback 0.826768 -1.95327 -0.0319701
thorax -0.402803 -0.977523 -0.706613
lowerneck -5.90984 -0.0417372 0.914738
upperneck 2.21101 -0.241078 2.57946
head 1.69396 -0.0587378 0.644672
rclavicle 2.52208e-015 5.1684e-015
rhumerus -34.9861 -18.0497 -78.1969
rradius 21.4268
rwrist 7.81627
rhand -18.9851 -7.49638
rfingers 7.12502
rthumb 7.31952 -37.3498
lclavicle 2.52208e-015 5.1684e-015
lhumerus -32.5743 9.96649 81.6526
lradius 24.3345
lwrist 15.8389
lhand -18.4304 12.8888
lfingers 7.12502
lthumb 7.85497 42.7229
rfemur -33.8564 4.53256 20.2819
rtibia 32.6214
rfoot 11.8037 -17.7265
rtoes -5.93134
lfemur 17.9031 8.84182 -19.1534
ltibia 4.13472e-014
lfoot 11.8478 -0.368779
ltoes -37.5658
277
root 46.012 17.4504 -4.28314 61.7545 -88.3659 -60.4999
lowerback 2.1768 -1.51606 1.27793
upperback 0.820396 -2.00045 -0.0238848
thorax -0.423766 -1.00126 -0.689343
lowerneck -5.91628 -0.0652138 0.896379
upperneck 2.12484 -0.268971 2.57425
head 1.66748 -0.074068 0.644916
rclavicle 1.56294e-014 -3.97569e-015
rhumerus -34.9699 -18.1459 -78.1458
rradius 21.3451
rwrist 7.91566
rhand -18.9603 -7.51754
rfingers 7.12502
rthumb 7.3435 -37.3701
lclavicle 1.56294e-014 -3.97569e-015
lhumerus -32.5216 10.0142 81.6934
lradius 24.2284
lwrist 15.7621
lhand -18.3984 12.852
lfingers 7.12502
lthumb 7.88583 42.6849
rfemur -34.0701 4.62153 20.1604
rtibia 32.7011
rfoot 11.8031 -18.1022
rtoes -5.60385
lfemur 18.0524 8.63562 -19.1652
ltibia 2.22639e-014
lfoot 11.8459 -0.249852
ltoes -37.6286
278
root 45.9365 17.445 -4.29417 54.3303 -88.2629 -53.0138
lowerback 2.19238 -1.56148 1.28897
upperback 0.815678 -2.06039 -0.00864381
thorax -0.438431 -1.03133 -0.677772
lowerneck -5.92787 -0.0880049 0.876029
upperneck 2.04089 -0.295851 2.56623
head 1.64265 -0.0888956 0.644678
rclavicle -2.84511e-014 2.98177e-015
rhumerus -34.9528 -18.2234 -78.0965
rradius 21.274
rwrist 8.00444
rhand -18.9287 -7.52905
rfingers 7.12502
rthumb 7.37402 -37.3805
lclavicle -2.84511e-014 2.98177e-015
lhumerus -32.4774 10.0609 81.7417
lradius 24.1278
lwrist 15.685
lhand -18.372 12.8186
lfingers 7.12502
lthumb 7.9113 42.6506
rfemur -34.2369 4.74664 20.0314
rtibia 32.7897
rfoot 11.8009 -18.4055
rtoes -5.363
lfemur 18.2105 8.40067 -19.1614
ltibia 0
lfoot 11.8783 -0.110472
ltoes -37.7202
279
root 45.8569 17.4395 -4.30489 47.9491 -88.1104 -46.5911
lowerback 2.20079 -1.61162 1.33004
upperback 0.821669 -2.12625 0.0143108
thorax -0.439024 -1.06426 -0.675322
lowerneck -5.94671 -0.112143 0.852721
upperneck 1.96153 -0.324362 2.55355
head 1.62062 -0.104531 0.643478
rclavicle -2.26242e-014 1.78906e-015
rhumerus -34.933 -18.2736 -78.0506
rradius 21.2153
rwrist 8.07684
rhand -18.8926 -7.53856
rfingers 7.12502
rthumb 7.40882 -37.3888
lclavicle -2.26242e-014 1.78906e-015
lhumerus -32.4455 10.0955 81.803
lradius 24.0435
lwrist 15.62
lhand -18.334 12.7686
lfingers 7.12502
lthumb 7.94802 42.5991
rfemur -34.3388 4.88287 19.9148
rtibia 32.8938
rfoot 11.8172 -18.6179
rtoes -5.17792
lfemur 18.4021 8.15335 -19.1369
ltibia 3.49861e-014
lfoot 11.935 0.0551717
ltoes -37.8481
